<?xml version="1.0" encoding="utf-8"?>
<!-- Generator: Adobe Illustrator 22.1.0, SVG Export Plug-In . SVG Version: 6.00 Build 0)  -->
<svg version="1.1" id="Layer_1" xmlns="http://www.w3.org/2000/svg" xmlns:xlink="http://www.w3.org/1999/xlink" x="0px" y="0px"
	 viewBox="0 0 16 16" style="enable-background:new 0 0 16 16;" xml:space="preserve">
<style type="text/css">
	.st0{fill:url(#SVGID_1_);}
	.st1{fill:url(#SVGID_2_);}
</style>
<g>
	<g>
		<g>
			<linearGradient id="SVGID_1_" gradientUnits="userSpaceOnUse" x1="3.982" y1="7.936" x2="12.1069" y2="7.936">
				<stop  offset="0" style="stop-color:#E9547A"/>
				<stop  offset="0.2957" style="stop-color:#1A8CCC"/>
				<stop  offset="0.7635" style="stop-color:#1A8CCC"/>
				<stop  offset="0.9659" style="stop-color:#80378B"/>
			</linearGradient>
			<path class="st0" d="M4.9,9.4L4,8.8c0.9-1.5,1.9-2.8,4.3-1.4l0.1,0C8.8,7.8,9.2,8.1,9.7,8c0.5-0.1,1-0.6,1.6-1.5l0.9,0.5
				C11.4,8.2,10.7,8.8,9.9,9C9,9.2,8.3,8.7,7.8,8.4l0,0C6.2,7.4,5.7,7.9,4.9,9.4z"/>
		</g>
	</g>
	<g>
		<g>
			<linearGradient id="SVGID_2_" gradientUnits="userSpaceOnUse" x1="1.2049" y1="8" x2="14.7951" y2="8">
				<stop  offset="0" style="stop-color:#E9547A"/>
				<stop  offset="0.2957" style="stop-color:#1A8CCC"/>
				<stop  offset="0.7635" style="stop-color:#1A8CCC"/>
				<stop  offset="0.9659" style="stop-color:#80378B"/>
			</linearGradient>
			<path class="st1" d="M8,14.8c-3.7,0-6.8-3-6.8-6.8s3-6.8,6.8-6.8s6.8,3,6.8,6.8S11.7,14.8,8,14.8z M8,2.2C4.8,2.2,2.2,4.8,2.2,8
				s2.6,5.8,5.8,5.8s5.8-2.6,5.8-5.8S11.2,2.2,8,2.2z"/>
		</g>
	</g>
</g>
</svg>
